# xmcd CD database file
#
# Track frame offsets:
#	150
#	23310
#	45643
#	71280
#	92515
#	115608
#	139268
#	161230
#	185215
#	205438
#	221418
#	237808
#	257855
#	265755
#
# Disc length: 3803 seconds
#
# Revision: 0
# Processed by: cddbd v1.5.2PL0 Copyright (c) Steve Scherf et al.
# Submitted via: CDex 1.70beta2
#
DISCID=c20ed90e
DTITLE=Don Grusin - Old Friends and Relatives
DYEAR=2010
DGENRE=Jazz
TTITLE0=At Last
TTITLE1=A Walk with Leonard
TTITLE2=Fire and Rain
TTITLE3=Flora
TTITLE4=Foreign Service
TTITLE5=Estate
TTITLE6=Circles
TTITLE7=Theme from High Noon
TTITLE8=New Age Cowboy
TTITLE9=Serious Romance
TTITLE10=Sadie
TTITLE11=Well, It's About You
TTITLE12=Lost and Found
TTITLE13=The Re-Education of DG
EXTD=YEAR: 2010
EXTT0=
EXTT1=
EXTT2=
EXTT3=
EXTT4=
EXTT5=
EXTT6=
EXTT7=
EXTT8=
EXTT9=
EXTT10=
EXTT11=
EXTT12=
EXTT13=
PLAYORDER=
